<mxfile host="app.diagrams.net" modified="2024-06-15T02:51:06.657Z" agent="Mozilla/5.0 (X11; Linux x86_64) AppleWebKit/537.36 (KHTML, like Gecko) Chrome/124.0.0.0 Safari/537.36" version="24.5.4" etag="k4OA8N2tPVg2-DCFcoCs" type="github">
  <diagram name="Page-1" id="rNAxFI9QrNI8t_Izia_C">
    <mxGraphModel>
      <root>
        <mxCell id="0" />
        <mxCell id="1" parent="0" />
      </root>
    </mxGraphModel>
  </diagram>
</mxfile>
